<?xml version="1.0" encoding="UTF-8"?>
<svg xmlns="http://www.w3.org/2000/svg" xmlns:xlink="http://www.w3.org/1999/xlink" width="196px" height="49px" viewBox="0 0 195 49" version="1.1">
<g id="surface1">
<path style=" stroke:none;fill-rule:nonzero;fill:rgb(99.607843%,100%,99.607843%);fill-opacity:1;" d="M 140.859375 49.160156 C 93.90625 49.160156 47.03125 49.160156 0.160156 49.160156 C 0.160156 32.828125 0.160156 16.492188 0.160156 0.160156 C 65.160156 0.160156 130.160156 0.160156 195.160156 0.160156 C 195.160156 16.492188 195.160156 32.828125 195.160156 49.160156 C 177.085938 49.160156 159.011719 49.160156 140.859375 49.160156 M 12.457031 43.183594 C 12.511719 43.203125 12.5625 43.21875 12.617188 43.234375 C 12.617188 43.234375 12.613281 43.238281 12.652344 43.332031 C 12.800781 43.402344 12.953125 43.472656 13.097656 43.554688 C 13.097656 43.554688 13.105469 43.542969 13.152344 43.628906 C 13.238281 43.660156 13.328125 43.691406 13.414062 43.714844 C 13.414062 43.714844 13.410156 43.71875 13.453125 43.816406 C 13.640625 43.902344 13.828125 43.992188 14.042969 44.042969 C 14.042969 44.042969 14.019531 44.082031 14.050781 44.164062 C 14.105469 44.175781 14.160156 44.1875 14.214844 44.195312 C 14.214844 44.195312 14.210938 44.199219 14.253906 44.296875 C 14.449219 44.378906 14.644531 44.460938 14.851562 44.519531 C 14.851562 44.519531 14.835938 44.539062 14.878906 44.628906 C 14.976562 44.648438 15.070312 44.671875 15.171875 44.675781 C 15.171875 44.675781 15.160156 44.6875 15.207031 44.777344 C 15.300781 44.800781 15.394531 44.820312 15.492188 44.835938 C 15.492188 44.835938 15.488281 44.839844 15.535156 44.929688 C 15.625 44.949219 15.71875 44.972656 15.8125 44.996094 C 15.8125 44.996094 15.8125 44.992188 15.871094 45.089844 C 16.382812 45.269531 16.898438 45.453125 17.40625 45.636719 C 17.40625 45.636719 17.410156 45.636719 17.46875 45.734375 C 21.738281 47.332031 26.125 47.558594 30.554688 46.699219 C 32.015625 46.414062 33.410156 45.785156 34.945312 45.292969 C 37.109375 44.429688 39.082031 43.238281 40.820312 41.695312 C 46.910156 36.289062 49.246094 29.453125 48.382812 21.4375 C 47.925781 17.175781 46.394531 13.3125 43.628906 10.058594 C 37.402344 2.730469 29.417969 0.441406 20.179688 2.34375 C 14.53125 3.507812 10.003906 6.582031 6.742188 11.351562 C 3.082031 16.710938 1.988281 22.671875 3.222656 29.019531 C 4.332031 34.714844 7.226562 39.332031 11.988281 42.847656 C 12.074219 42.886719 12.160156 42.925781 12.265625 42.957031 C 12.265625 42.957031 12.257812 42.976562 12.285156 43.050781 C 12.335938 43.066406 12.386719 43.085938 12.457031 43.078125 C 12.457031 43.078125 12.433594 43.097656 12.457031 43.183594 M 58.632812 18.65625 C 58.632812 24.859375 58.632812 31.066406 58.632812 37.269531 C 59.734375 37.269531 60.730469 37.269531 61.804688 37.269531 C 61.804688 34.019531 61.804688 30.804688 61.804688 27.542969 C 63.972656 27.542969 66.070312 27.566406 68.167969 27.527344 C 68.738281 27.519531 69.0625 27.675781 69.363281 28.179688 C 71.089844 31.058594 72.855469 33.914062 74.625 36.765625 C 74.761719 36.984375 75.011719 37.277344 75.222656 37.285156 C 76.292969 37.339844 77.371094 37.3125 78.566406 37.3125 C 76.351562 33.878906 74.214844 30.566406 72.039062 27.195312 C 72.3125 27.125 72.4375 27.09375 72.5625 27.0625 C 75.628906 26.320312 77.550781 23.953125 77.636719 20.8125 C 77.730469 17.425781 76.105469 15.121094 72.882812 14.230469 C 71.898438 13.957031 70.847656 13.804688 69.824219 13.789062 C 66.3125 13.738281 62.800781 13.769531 59.285156 13.773438 C 59.082031 13.773438 58.878906 13.796875 58.632812 13.816406 C 58.632812 15.410156 58.632812 16.953125 58.632812 18.65625 M 150.589844 21.214844 C 150.589844 22.035156 150.589844 22.851562 150.589844 23.675781 C 146.394531 23.675781 142.285156 23.675781 138.113281 23.675781 C 138.113281 20.359375 138.113281 17.09375 138.113281 13.828125 C 137.027344 13.828125 136.011719 13.828125 135.003906 13.828125 C 135.003906 21.671875 135.003906 29.453125 135.003906 37.261719 C 136.054688 37.261719 137.074219 37.261719 138.164062 37.261719 C 138.164062 33.625 138.164062 30.039062 138.164062 26.480469 C 142.347656 26.480469 146.457031 26.480469 150.605469 26.480469 C 150.605469 30.101562 150.605469 33.667969 150.605469 37.257812 C 151.664062 37.257812 152.679688 37.257812 153.679688 37.257812 C 153.679688 29.402344 153.679688 21.601562 153.679688 13.816406 C 152.625 13.816406 151.625 13.816406 150.589844 13.816406 C 150.589844 16.261719 150.589844 18.660156 150.589844 21.214844 M 182.675781 36.953125 C 182.871094 37.039062 183.0625 37.132812 183.261719 37.199219 C 186.382812 38.21875 190.570312 37.828125 191.878906 32.890625 C 192.121094 31.96875 192.285156 31.011719 192.363281 30.0625 C 192.5625 27.578125 192.5 25.101562 191.640625 22.71875 C 190.972656 20.875 189.753906 19.558594 187.804688 19.105469 C 185.316406 18.527344 182.003906 18.90625 180.585938 21.734375 C 180.570312 21.761719 180.5 21.761719 180.40625 21.792969 C 180.40625 18.707031 180.40625 15.636719 180.40625 12.546875 C 179.394531 12.546875 178.433594 12.546875 177.433594 12.546875 C 177.433594 20.828125 177.433594 29.054688 177.433594 37.265625 C 178.378906 37.265625 179.273438 37.265625 180.25 37.265625 C 180.292969 36.417969 180.335938 35.605469 180.375 34.875 C 181.113281 35.550781 181.84375 36.21875 182.675781 36.953125 M 82.058594 32.613281 C 82.808594 34.960938 84.3125 36.582031 86.695312 37.269531 C 88.570312 37.8125 90.488281 37.800781 92.367188 37.28125 C 94.429688 36.710938 95.941406 35.484375 96.675781 33.34375 C 95.808594 33.09375 94.976562 32.855469 94.164062 32.621094 C 92.769531 35.070312 90.1875 36.015625 87.648438 35.070312 C 85.605469 34.304688 84.15625 31.359375 84.65625 28.875 C 88.804688 28.875 92.96875 28.875 97.253906 28.875 C 97.136719 27.617188 97.097656 26.445312 96.910156 25.292969 C 96.296875 21.546875 94.25 19.398438 90.652344 18.976562 C 86.296875 18.46875 82.722656 20.183594 81.71875 25.132812 C 81.222656 27.597656 81.3125 30.0625 82.058594 32.613281 M 110.527344 24.425781 C 109.464844 27.542969 108.40625 30.664062 107.296875 33.925781 C 107.167969 33.605469 107.105469 33.464844 107.050781 33.316406 C 105.417969 28.8125 103.792969 24.304688 102.140625 19.808594 C 102.054688 19.570312 101.765625 19.257812 101.550781 19.242188 C 100.65625 19.175781 99.757812 19.214844 98.800781 19.214844 C 98.902344 19.511719 98.972656 19.738281 99.058594 19.957031 C 101.101562 25.191406 103.105469 30.4375 105.230469 35.636719 C 105.738281 36.882812 105.640625 37.878906 105.054688 39.007812 C 103.972656 41.097656 102.46875 42.371094 99.96875 41.988281 C 99.929688 41.980469 99.882812 42.035156 99.796875 42.082031 C 99.796875 42.617188 99.753906 43.179688 99.816406 43.730469 C 99.839844 43.941406 100.082031 44.277344 100.257812 44.300781 C 102.414062 44.558594 104.480469 44.308594 105.855469 42.414062 C 106.753906 41.179688 107.535156 39.8125 108.109375 38.398438 C 109.628906 34.648438 111.011719 30.84375 112.445312 27.0625 C 113.425781 24.476562 114.398438 21.886719 115.398438 19.246094 C 114.320312 19.246094 113.320312 19.246094 112.277344 19.246094 C 111.707031 20.929688 111.136719 22.617188 110.527344 24.425781 M 161.648438 21.21875 C 161.648438 20.5625 161.648438 19.910156 161.648438 19.261719 C 160.609375 19.261719 159.664062 19.261719 158.695312 19.261719 C 158.695312 20.664062 158.6875 22.023438 158.695312 23.382812 C 158.707031 26.449219 158.675781 29.519531 158.761719 32.582031 C 158.808594 34.21875 159.273438 35.757812 160.738281 36.753906 C 163.339844 38.523438 167.589844 37.734375 169.386719 35.167969 C 169.554688 34.925781 169.726562 34.683594 169.894531 34.445312 C 169.960938 34.460938 170.023438 34.480469 170.085938 34.496094 C 170.085938 35.414062 170.085938 36.332031 170.085938 37.265625 C 171.097656 37.265625 171.988281 37.265625 172.84375 37.265625 C 172.84375 31.238281 172.84375 25.253906 172.84375 19.261719 C 171.808594 19.261719 170.867188 19.261719 169.933594 19.261719 C 169.917969 19.359375 169.898438 19.410156 169.898438 19.460938 C 169.898438 22.289062 169.90625 25.117188 169.890625 27.941406 C 169.886719 28.925781 169.902344 29.921875 169.785156 30.894531 C 169.414062 34.066406 167.457031 35.585938 164.292969 35.230469 C 163.082031 35.09375 162.238281 34.464844 161.96875 33.269531 C 161.773438 32.417969 161.675781 31.53125 161.664062 30.660156 C 161.628906 27.566406 161.652344 24.472656 161.648438 21.21875 M 120.230469 34.195312 C 123.335938 30.332031 126.394531 26.429688 129.574219 22.632812 C 130.484375 21.550781 130.507812 20.476562 130.386719 19.257812 C 125.882812 19.257812 121.421875 19.257812 116.960938 19.257812 C 116.960938 20.03125 116.960938 20.757812 116.960938 21.582031 C 120.3125 21.582031 123.613281 21.582031 127.035156 21.582031 C 126.765625 21.925781 126.589844 22.152344 126.410156 22.378906 C 123.359375 26.179688 120.359375 30.03125 117.21875 33.757812 C 116.277344 34.875 116.175781 35.976562 116.304688 37.265625 C 121.222656 37.265625 126.101562 37.265625 130.96875 37.265625 C 130.96875 36.480469 130.96875 35.75 130.96875 34.945312 C 127.203125 34.945312 123.496094 34.945312 119.664062 34.945312 C 119.878906 34.652344 120.011719 34.46875 120.230469 34.195312 Z M 120.230469 34.195312 "/>
<path style=" stroke:none;fill-rule:nonzero;fill:rgb(0.784314%,51.764706%,81.960784%);fill-opacity:1;" d="M 11.941406 42.761719 C 7.226562 39.332031 4.332031 34.714844 3.222656 29.019531 C 1.988281 22.671875 3.082031 16.710938 6.742188 11.351562 C 10.003906 6.582031 14.53125 3.507812 20.179688 2.34375 C 29.417969 0.441406 37.402344 2.730469 43.628906 10.058594 C 46.394531 13.3125 47.925781 17.175781 48.382812 21.4375 C 49.246094 29.453125 46.910156 36.289062 40.820312 41.695312 C 39.082031 43.238281 37.109375 44.429688 34.820312 45.304688 C 33.96875 45.527344 33.25 45.792969 32.507812 45.929688 C 30.804688 46.246094 29.097656 46.632812 27.378906 46.746094 C 25.578125 46.867188 23.742188 46.8125 21.949219 46.617188 C 20.417969 46.453125 18.921875 45.976562 17.410156 45.636719 C 17.410156 45.636719 17.40625 45.636719 17.382812 45.585938 C 16.84375 45.351562 16.328125 45.171875 15.8125 44.992188 C 15.8125 44.992188 15.8125 44.996094 15.785156 44.953125 C 15.667969 44.886719 15.578125 44.863281 15.488281 44.839844 C 15.488281 44.839844 15.492188 44.835938 15.464844 44.796875 C 15.347656 44.734375 15.253906 44.710938 15.160156 44.6875 C 15.160156 44.6875 15.171875 44.675781 15.144531 44.640625 C 15.023438 44.582031 14.929688 44.558594 14.835938 44.539062 C 14.835938 44.539062 14.851562 44.519531 14.828125 44.476562 C 14.605469 44.355469 14.40625 44.277344 14.210938 44.199219 C 14.210938 44.199219 14.214844 44.195312 14.195312 44.160156 C 14.125 44.109375 14.070312 44.09375 14.019531 44.082031 C 14.019531 44.082031 14.042969 44.042969 14.023438 44.003906 C 13.804688 43.882812 13.609375 43.800781 13.410156 43.71875 C 13.410156 43.71875 13.414062 43.714844 13.394531 43.675781 C 13.28125 43.601562 13.195312 43.574219 13.105469 43.542969 C 13.105469 43.542969 13.097656 43.554688 13.089844 43.496094 C 12.929688 43.367188 12.769531 43.300781 12.613281 43.238281 C 12.613281 43.238281 12.617188 43.234375 12.601562 43.199219 C 12.535156 43.140625 12.484375 43.121094 12.433594 43.097656 C 12.433594 43.097656 12.457031 43.078125 12.433594 43.046875 C 12.359375 43.003906 12.308594 42.988281 12.257812 42.976562 C 12.257812 42.976562 12.265625 42.957031 12.246094 42.910156 C 12.132812 42.828125 12.035156 42.796875 11.941406 42.761719 M 32.53125 15.496094 C 30.90625 14.214844 29 13.796875 27 13.78125 C 23.488281 13.746094 19.976562 13.769531 16.460938 13.773438 C 16.234375 13.773438 16.003906 13.800781 15.773438 13.816406 C 15.773438 21.671875 15.773438 29.472656 15.773438 37.253906 C 16.832031 37.253906 17.832031 37.253906 18.882812 37.253906 C 18.882812 34 18.882812 30.808594 18.882812 27.542969 C 21.058594 27.542969 23.179688 27.5625 25.300781 27.53125 C 25.851562 27.519531 26.152344 27.699219 26.4375 28.167969 C 28.167969 31.042969 29.929688 33.898438 31.699219 36.753906 C 31.835938 36.976562 32.085938 37.273438 32.292969 37.285156 C 33.367188 37.339844 34.445312 37.308594 35.648438 37.308594 C 33.4375 33.886719 31.308594 30.589844 29.125 27.207031 C 31.851562 26.589844 33.816406 25.164062 34.464844 22.445312 C 35.085938 19.863281 34.734375 17.453125 32.53125 15.496094 Z M 32.53125 15.496094 "/>
<path style=" stroke:none;fill-rule:nonzero;fill:rgb(1.960784%,1.176471%,1.568627%);fill-opacity:1;" d="M 58.632812 18.574219 C 58.632812 16.953125 58.632812 15.410156 58.632812 13.816406 C 58.878906 13.796875 59.082031 13.773438 59.285156 13.773438 C 62.800781 13.769531 66.3125 13.738281 69.824219 13.789062 C 70.847656 13.804688 71.898438 13.957031 72.882812 14.230469 C 76.105469 15.121094 77.730469 17.425781 77.636719 20.8125 C 77.550781 23.953125 75.628906 26.320312 72.5625 27.0625 C 72.4375 27.09375 72.3125 27.125 72.039062 27.195312 C 74.214844 30.566406 76.351562 33.878906 78.566406 37.3125 C 77.371094 37.3125 76.292969 37.339844 75.222656 37.285156 C 75.011719 37.277344 74.761719 36.984375 74.625 36.765625 C 72.855469 33.914062 71.089844 31.058594 69.363281 28.179688 C 69.0625 27.675781 68.738281 27.519531 68.167969 27.527344 C 66.070312 27.566406 63.972656 27.542969 61.804688 27.542969 C 61.804688 30.804688 61.804688 34.019531 61.804688 37.269531 C 60.730469 37.269531 59.734375 37.269531 58.632812 37.269531 C 58.632812 31.066406 58.632812 24.859375 58.632812 18.574219 M 74.425781 19.703125 C 74.171875 18.101562 73.1875 17.132812 71.699219 16.691406 C 70.972656 16.472656 70.1875 16.363281 69.425781 16.351562 C 67.085938 16.308594 64.746094 16.332031 62.40625 16.335938 C 62.203125 16.335938 62 16.367188 61.847656 16.382812 C 61.847656 19.289062 61.847656 22.128906 61.847656 24.976562 C 62.003906 24.988281 62.109375 25 62.214844 25 C 64.742188 24.996094 67.269531 25.027344 69.792969 24.980469 C 72.992188 24.925781 74.683594 23.023438 74.425781 19.703125 Z M 74.425781 19.703125 "/>
<path style=" stroke:none;fill-rule:nonzero;fill:rgb(1.960784%,1.568627%,2.745098%);fill-opacity:1;" d="M 150.589844 21.136719 C 150.589844 18.660156 150.589844 16.261719 150.589844 13.816406 C 151.625 13.816406 152.625 13.816406 153.679688 13.816406 C 153.679688 21.601562 153.679688 29.402344 153.679688 37.257812 C 152.679688 37.257812 151.664062 37.257812 150.605469 37.257812 C 150.605469 33.667969 150.605469 30.101562 150.605469 26.480469 C 146.457031 26.480469 142.347656 26.480469 138.164062 26.480469 C 138.164062 30.039062 138.164062 33.625 138.164062 37.261719 C 137.074219 37.261719 136.054688 37.261719 135.003906 37.261719 C 135.003906 29.453125 135.003906 21.671875 135.003906 13.828125 C 136.011719 13.828125 137.027344 13.828125 138.113281 13.828125 C 138.113281 17.09375 138.113281 20.359375 138.113281 23.675781 C 142.285156 23.675781 146.394531 23.675781 150.589844 23.675781 C 150.589844 22.851562 150.589844 22.035156 150.589844 21.136719 Z M 150.589844 21.136719 "/>
<path style=" stroke:none;fill-rule:nonzero;fill:rgb(1.960784%,1.568627%,2.352941%);fill-opacity:1;" d="M 182.628906 36.921875 C 181.84375 36.21875 181.113281 35.550781 180.375 34.875 C 180.335938 35.605469 180.292969 36.417969 180.25 37.265625 C 179.273438 37.265625 178.378906 37.265625 177.433594 37.265625 C 177.433594 29.054688 177.433594 20.828125 177.433594 12.546875 C 178.433594 12.546875 179.394531 12.546875 180.40625 12.546875 C 180.40625 15.636719 180.40625 18.707031 180.40625 21.792969 C 180.5 21.761719 180.570312 21.761719 180.585938 21.734375 C 182.003906 18.90625 185.316406 18.527344 187.804688 19.105469 C 189.753906 19.558594 190.972656 20.875 191.640625 22.71875 C 192.5 25.101562 192.5625 27.578125 192.363281 30.0625 C 192.285156 31.011719 192.121094 31.96875 191.878906 32.890625 C 190.570312 37.828125 186.382812 38.21875 183.261719 37.199219 C 183.0625 37.132812 182.871094 37.039062 182.628906 36.921875 M 180.738281 25.050781 C 180.679688 26.988281 180.527344 28.929688 180.613281 30.859375 C 180.65625 31.777344 181.027344 32.742188 181.472656 33.566406 C 182.371094 35.21875 183.976562 35.496094 185.675781 35.371094 C 187.226562 35.257812 188.273438 34.375 188.703125 32.925781 C 189.617188 29.867188 189.621094 26.761719 188.734375 23.699219 C 188.316406 22.253906 187.285156 21.386719 185.710938 21.265625 C 182.980469 21.050781 181.480469 22.148438 180.738281 25.050781 Z M 180.738281 25.050781 "/>
<path style=" stroke:none;fill-rule:nonzero;fill:rgb(1.568627%,1.176471%,1.176471%);fill-opacity:1;" d="M 82.035156 32.554688 C 81.3125 30.0625 81.222656 27.597656 81.71875 25.132812 C 82.722656 20.183594 86.296875 18.46875 90.652344 18.976562 C 94.25 19.398438 96.296875 21.546875 96.910156 25.292969 C 97.097656 26.445312 97.136719 27.617188 97.253906 28.875 C 92.96875 28.875 88.804688 28.875 84.65625 28.875 C 84.15625 31.359375 85.605469 34.304688 87.648438 35.070312 C 90.1875 36.015625 92.769531 35.070312 94.164062 32.621094 C 94.976562 32.855469 95.808594 33.09375 96.675781 33.34375 C 95.941406 35.484375 94.429688 36.710938 92.367188 37.28125 C 90.488281 37.800781 88.570312 37.8125 86.695312 37.269531 C 84.3125 36.582031 82.808594 34.960938 82.035156 32.554688 M 84.628906 25.898438 C 84.628906 26.105469 84.628906 26.3125 84.628906 26.535156 C 87.785156 26.535156 90.933594 26.535156 94.253906 26.535156 C 93.949219 25.460938 93.742188 24.4375 93.363281 23.488281 C 92.894531 22.308594 91.960938 21.582031 90.710938 21.289062 C 87.492188 20.527344 85.105469 22.277344 84.628906 25.898438 Z M 84.628906 25.898438 "/>
<path style=" stroke:none;fill-rule:nonzero;fill:rgb(1.960784%,1.568627%,1.960784%);fill-opacity:1;" d="M 110.546875 24.363281 C 111.136719 22.617188 111.707031 20.929688 112.277344 19.246094 C 113.320312 19.246094 114.320312 19.246094 115.398438 19.246094 C 114.398438 21.886719 113.425781 24.476562 112.445312 27.0625 C 111.011719 30.84375 109.628906 34.648438 108.109375 38.398438 C 107.535156 39.8125 106.753906 41.179688 105.855469 42.414062 C 104.480469 44.308594 102.414062 44.558594 100.257812 44.300781 C 100.082031 44.277344 99.839844 43.941406 99.816406 43.730469 C 99.753906 43.179688 99.796875 42.617188 99.796875 42.082031 C 99.882812 42.035156 99.929688 41.980469 99.96875 41.988281 C 102.46875 42.371094 103.972656 41.097656 105.054688 39.007812 C 105.640625 37.878906 105.738281 36.882812 105.230469 35.636719 C 103.105469 30.4375 101.101562 25.191406 99.058594 19.957031 C 98.972656 19.738281 98.902344 19.511719 98.800781 19.214844 C 99.757812 19.214844 100.65625 19.175781 101.550781 19.242188 C 101.765625 19.257812 102.054688 19.570312 102.140625 19.808594 C 103.792969 24.304688 105.417969 28.8125 107.050781 33.316406 C 107.105469 33.464844 107.167969 33.605469 107.296875 33.925781 C 108.40625 30.664062 109.464844 27.542969 110.546875 24.363281 Z M 110.546875 24.363281 "/>
<path style=" stroke:none;fill-rule:nonzero;fill:rgb(0.784314%,0.392157%,0.784314%);fill-opacity:1;" d="M 161.648438 21.296875 C 161.652344 24.472656 161.628906 27.566406 161.664062 30.660156 C 161.675781 31.53125 161.773438 32.417969 161.96875 33.269531 C 162.238281 34.464844 163.082031 35.09375 164.292969 35.230469 C 167.457031 35.585938 169.414062 34.066406 169.785156 30.894531 C 169.902344 29.921875 169.886719 28.925781 169.890625 27.941406 C 169.90625 25.117188 169.898438 22.289062 169.898438 19.460938 C 169.898438 19.410156 169.917969 19.359375 169.933594 19.261719 C 170.867188 19.261719 171.808594 19.261719 172.84375 19.261719 C 172.84375 25.253906 172.84375 31.238281 172.84375 37.265625 C 171.988281 37.265625 171.097656 37.265625 170.085938 37.265625 C 170.085938 36.332031 170.085938 35.414062 170.085938 34.496094 C 170.023438 34.480469 169.960938 34.460938 169.894531 34.445312 C 169.726562 34.683594 169.554688 34.925781 169.386719 35.167969 C 167.589844 37.734375 163.339844 38.523438 160.738281 36.753906 C 159.273438 35.757812 158.808594 34.21875 158.761719 32.582031 C 158.675781 29.519531 158.707031 26.449219 158.695312 23.382812 C 158.6875 22.023438 158.695312 20.664062 158.695312 19.261719 C 159.664062 19.261719 160.609375 19.261719 161.648438 19.261719 C 161.648438 19.910156 161.648438 20.5625 161.648438 21.296875 Z M 161.648438 21.296875 "/>
<path style=" stroke:none;fill-rule:nonzero;fill:rgb(2.352941%,1.960784%,2.352941%);fill-opacity:1;" d="M 120.191406 34.242188 C 120.011719 34.46875 119.878906 34.652344 119.664062 34.945312 C 123.496094 34.945312 127.203125 34.945312 130.96875 34.945312 C 130.96875 35.75 130.96875 36.480469 130.96875 37.265625 C 126.101562 37.265625 121.222656 37.265625 116.304688 37.265625 C 116.175781 35.976562 116.277344 34.875 117.21875 33.757812 C 120.359375 30.03125 123.359375 26.179688 126.410156 22.378906 C 126.589844 22.152344 126.765625 21.925781 127.035156 21.582031 C 123.613281 21.582031 120.3125 21.582031 116.960938 21.582031 C 116.960938 20.757812 116.960938 20.03125 116.960938 19.257812 C 121.421875 19.257812 125.882812 19.257812 130.386719 19.257812 C 130.507812 20.476562 130.484375 21.550781 129.574219 22.632812 C 126.394531 26.429688 123.335938 30.332031 120.191406 34.242188 Z M 120.191406 34.242188 "/>
<path style=" stroke:none;fill-rule:nonzero;fill:rgb(39.215686%,57.647059%,76.078431%);fill-opacity:1;" d="M 17.4375 45.683594 C 18.921875 45.976562 20.417969 46.453125 21.949219 46.617188 C 23.742188 46.8125 25.578125 46.867188 27.378906 46.746094 C 29.097656 46.632812 30.804688 46.246094 32.507812 45.929688 C 33.25 45.792969 33.96875 45.527344 34.765625 45.316406 C 33.410156 45.785156 32.015625 46.414062 30.554688 46.699219 C 26.125 47.558594 21.738281 47.332031 17.4375 45.683594 Z M 17.4375 45.683594 "/>
<path style=" stroke:none;fill-rule:nonzero;fill:rgb(39.215686%,57.647059%,76.078431%);fill-opacity:1;" d="M 15.84375 45.042969 C 16.328125 45.171875 16.84375 45.351562 17.386719 45.585938 C 16.898438 45.453125 16.382812 45.269531 15.84375 45.042969 Z M 15.84375 45.042969 "/>
<path style=" stroke:none;fill-rule:nonzero;fill:rgb(39.215686%,57.647059%,76.078431%);fill-opacity:1;" d="M 13.433594 43.769531 C 13.609375 43.800781 13.804688 43.882812 14.007812 44.023438 C 13.828125 43.992188 13.640625 43.902344 13.433594 43.769531 Z M 13.433594 43.769531 "/>
<path style=" stroke:none;fill-rule:nonzero;fill:rgb(39.215686%,57.647059%,76.078431%);fill-opacity:1;" d="M 14.234375 44.246094 C 14.40625 44.277344 14.605469 44.355469 14.820312 44.488281 C 14.644531 44.460938 14.449219 44.378906 14.234375 44.246094 Z M 14.234375 44.246094 "/>
<path style=" stroke:none;fill-rule:nonzero;fill:rgb(39.215686%,57.647059%,76.078431%);fill-opacity:1;" d="M 12.632812 43.285156 C 12.769531 43.300781 12.929688 43.367188 13.09375 43.488281 C 12.953125 43.472656 12.800781 43.402344 12.632812 43.285156 Z M 12.632812 43.285156 "/>
<path style=" stroke:none;fill-rule:nonzero;fill:rgb(39.215686%,57.647059%,76.078431%);fill-opacity:1;" d="M 13.128906 43.585938 C 13.195312 43.574219 13.28125 43.601562 13.390625 43.675781 C 13.328125 43.691406 13.238281 43.660156 13.128906 43.585938 Z M 13.128906 43.585938 "/>
<path style=" stroke:none;fill-rule:nonzero;fill:rgb(39.215686%,57.647059%,76.078431%);fill-opacity:1;" d="M 14.859375 44.582031 C 14.929688 44.558594 15.023438 44.582031 15.140625 44.648438 C 15.070312 44.671875 14.976562 44.648438 14.859375 44.582031 Z M 14.859375 44.582031 "/>
<path style=" stroke:none;fill-rule:nonzero;fill:rgb(39.215686%,57.647059%,76.078431%);fill-opacity:1;" d="M 15.183594 44.734375 C 15.253906 44.710938 15.347656 44.734375 15.464844 44.800781 C 15.394531 44.820312 15.300781 44.800781 15.183594 44.734375 Z M 15.183594 44.734375 "/>
<path style=" stroke:none;fill-rule:nonzero;fill:rgb(39.215686%,57.647059%,76.078431%);fill-opacity:1;" d="M 15.511719 44.886719 C 15.578125 44.863281 15.667969 44.886719 15.785156 44.953125 C 15.71875 44.972656 15.625 44.949219 15.511719 44.886719 Z M 15.511719 44.886719 "/>
<path style=" stroke:none;fill-rule:nonzero;fill:rgb(39.215686%,57.647059%,76.078431%);fill-opacity:1;" d="M 11.964844 42.804688 C 12.035156 42.796875 12.132812 42.828125 12.238281 42.914062 C 12.160156 42.925781 12.074219 42.886719 11.964844 42.804688 Z M 11.964844 42.804688 "/>
<path style=" stroke:none;fill-rule:nonzero;fill:rgb(39.215686%,57.647059%,76.078431%);fill-opacity:1;" d="M 12.273438 43.011719 C 12.308594 42.988281 12.359375 43.003906 12.421875 43.058594 C 12.386719 43.085938 12.335938 43.066406 12.273438 43.011719 Z M 12.273438 43.011719 "/>
<path style=" stroke:none;fill-rule:nonzero;fill:rgb(39.215686%,57.647059%,76.078431%);fill-opacity:1;" d="M 12.445312 43.140625 C 12.484375 43.121094 12.535156 43.140625 12.601562 43.199219 C 12.5625 43.21875 12.511719 43.203125 12.445312 43.140625 Z M 12.445312 43.140625 "/>
<path style=" stroke:none;fill-rule:nonzero;fill:rgb(39.215686%,57.647059%,76.078431%);fill-opacity:1;" d="M 14.035156 44.121094 C 14.070312 44.09375 14.125 44.109375 14.195312 44.160156 C 14.160156 44.1875 14.105469 44.175781 14.035156 44.121094 Z M 14.035156 44.121094 "/>
<path style=" stroke:none;fill-rule:nonzero;fill:rgb(98.431373%,99.215686%,99.607843%);fill-opacity:1;" d="M 32.578125 15.53125 C 34.734375 17.453125 35.085938 19.863281 34.464844 22.445312 C 33.816406 25.164062 31.851562 26.589844 29.125 27.207031 C 31.308594 30.589844 33.4375 33.886719 35.648438 37.308594 C 34.445312 37.308594 33.367188 37.339844 32.292969 37.285156 C 32.085938 37.273438 31.835938 36.976562 31.699219 36.753906 C 29.929688 33.898438 28.167969 31.042969 26.4375 28.167969 C 26.152344 27.699219 25.851562 27.519531 25.300781 27.53125 C 23.179688 27.5625 21.058594 27.542969 18.882812 27.542969 C 18.882812 30.808594 18.882812 34 18.882812 37.253906 C 17.832031 37.253906 16.832031 37.253906 15.773438 37.253906 C 15.773438 29.472656 15.773438 21.671875 15.773438 13.816406 C 16.003906 13.800781 16.234375 13.773438 16.460938 13.773438 C 19.976562 13.769531 23.488281 13.746094 27 13.78125 C 29 13.796875 30.90625 14.214844 32.578125 15.53125 M 27.179688 24.980469 C 27.671875 24.882812 28.179688 24.828125 28.652344 24.675781 C 30.59375 24.050781 31.644531 22.507812 31.585938 20.421875 C 31.535156 18.410156 30.457031 17.082031 28.402344 16.582031 C 27.765625 16.425781 27.089844 16.351562 26.433594 16.34375 C 24.148438 16.316406 21.859375 16.332031 19.574219 16.335938 C 19.34375 16.335938 19.117188 16.367188 18.914062 16.378906 C 18.914062 19.289062 18.914062 22.125 18.914062 24.984375 C 21.660156 24.984375 24.34375 24.984375 27.179688 24.980469 Z M 27.179688 24.980469 "/>
<path style=" stroke:none;fill-rule:nonzero;fill:rgb(99.607843%,99.607843%,99.607843%);fill-opacity:1;" d="M 74.433594 19.773438 C 74.683594 23.023438 72.992188 24.925781 69.792969 24.980469 C 67.269531 25.027344 64.742188 24.996094 62.214844 25 C 62.109375 25 62.003906 24.988281 61.847656 24.976562 C 61.847656 22.128906 61.847656 19.289062 61.847656 16.382812 C 62 16.367188 62.203125 16.335938 62.40625 16.335938 C 64.746094 16.332031 67.085938 16.308594 69.425781 16.351562 C 70.1875 16.363281 70.972656 16.472656 71.699219 16.691406 C 73.1875 17.132812 74.171875 18.101562 74.433594 19.773438 Z M 74.433594 19.773438 "/>
<path style=" stroke:none;fill-rule:nonzero;fill:rgb(99.215686%,99.607843%,99.215686%);fill-opacity:1;" d="M 180.75 24.988281 C 181.480469 22.148438 182.980469 21.050781 185.710938 21.265625 C 187.285156 21.386719 188.316406 22.253906 188.734375 23.699219 C 189.621094 26.761719 189.617188 29.867188 188.703125 32.925781 C 188.273438 34.375 187.226562 35.257812 185.675781 35.371094 C 183.976562 35.496094 182.371094 35.21875 181.472656 33.566406 C 181.027344 32.742188 180.65625 31.777344 180.613281 30.859375 C 180.527344 28.929688 180.679688 26.988281 180.75 24.988281 Z M 180.75 24.988281 "/>
<path style=" stroke:none;fill-rule:nonzero;fill:rgb(99.215686%,99.215686%,98.823529%);fill-opacity:1;" d="M 84.632812 25.824219 C 85.105469 22.277344 87.492188 20.527344 90.710938 21.289062 C 91.960938 21.582031 92.894531 22.308594 93.363281 23.488281 C 93.742188 24.4375 93.949219 25.460938 94.253906 26.535156 C 90.933594 26.535156 87.785156 26.535156 84.628906 26.535156 C 84.628906 26.3125 84.628906 26.105469 84.632812 25.824219 Z M 84.632812 25.824219 "/>
<path style=" stroke:none;fill-rule:nonzero;fill:rgb(0.392157%,52.156863%,81.960784%);fill-opacity:1;" d="M 27.101562 24.984375 C 24.34375 24.984375 21.660156 24.984375 18.914062 24.984375 C 18.914062 22.125 18.914062 19.289062 18.914062 16.378906 C 19.117188 16.367188 19.34375 16.335938 19.574219 16.335938 C 21.859375 16.332031 24.148438 16.316406 26.433594 16.34375 C 27.089844 16.351562 27.765625 16.425781 28.402344 16.582031 C 30.457031 17.082031 31.535156 18.410156 31.585938 20.421875 C 31.644531 22.507812 30.59375 24.050781 28.652344 24.675781 C 28.179688 24.828125 27.671875 24.882812 27.101562 24.984375 Z M 27.101562 24.984375 "/>
</g>
</svg>
