<?xml version="1.0" encoding="UTF-8"?>
<svg xmlns="http://www.w3.org/2000/svg" xmlns:xlink="http://www.w3.org/1999/xlink" width="204px" height="49px" viewBox="0 0 203 49" version="1.1">
<g id="surface1">
<path style=" stroke:none;fill-rule:nonzero;fill:rgb(0.784314%,51.764706%,81.568627%);fill-opacity:1;" d="M 41.25 6.058594 C 41.664062 6.4375 42.066406 6.828125 42.472656 7.21875 C 42.59375 7.324219 42.710938 7.433594 42.835938 7.542969 C 44.011719 8.628906 44.84375 9.984375 45.710938 11.3125 C 45.863281 11.539062 45.863281 11.539062 46.015625 11.769531 C 49.351562 16.96875 50.039062 23.980469 48.78125 29.917969 C 47.796875 34.277344 45.71875 38.136719 42.644531 41.355469 C 42.519531 41.488281 42.394531 41.625 42.269531 41.765625 C 38.082031 46.226562 31.785156 48.539062 25.757812 48.726562 C 19.300781 48.824219 13.367188 47.027344 8.363281 42.890625 C 8.167969 42.730469 8.167969 42.730469 7.964844 42.566406 C 7.164062 41.886719 6.472656 41.144531 5.808594 40.328125 C 5.609375 40.089844 5.609375 40.089844 5.40625 39.84375 C 3.09375 36.980469 1.574219 33.65625 0.691406 30.089844 C 0.648438 29.917969 0.648438 29.917969 0.605469 29.746094 C -0.824219 23.746094 0.332031 16.882812 3.5 11.636719 C 4.328125 10.296875 5.191406 9.085938 6.285156 7.953125 C 6.667969 7.566406 6.667969 7.566406 6.996094 7.128906 C 10.441406 2.929688 16.613281 0.660156 21.875 0.128906 C 28.871094 -0.460938 35.945312 1.300781 41.25 6.058594 Z M 41.25 6.058594 "/>
<path style=" stroke:none;fill-rule:nonzero;fill:rgb(98.039216%,99.215686%,99.607843%);fill-opacity:1;" d="M 13.992188 13.019531 C 16.160156 13.007812 18.324219 12.992188 20.558594 12.976562 C 21.238281 12.972656 21.914062 12.964844 22.613281 12.960938 C 23.457031 12.957031 23.457031 12.957031 23.855469 12.957031 C 24.125 12.953125 24.398438 12.953125 24.667969 12.949219 C 27.125 12.917969 29.652344 13.085938 31.726562 14.558594 C 31.835938 14.628906 31.941406 14.703125 32.050781 14.777344 C 33.179688 15.648438 33.929688 16.9375 34.285156 18.3125 C 34.507812 20.488281 34.414062 22.664062 33.136719 24.511719 C 31.871094 26.023438 30.515625 26.738281 28.660156 27.359375 C 28.886719 27.976562 29.164062 28.5 29.527344 29.050781 C 29.632812 29.210938 29.734375 29.371094 29.84375 29.535156 C 29.957031 29.703125 30.066406 29.871094 30.183594 30.046875 C 30.417969 30.402344 30.648438 30.757812 30.882812 31.113281 C 30.996094 31.285156 31.113281 31.460938 31.230469 31.640625 C 31.671875 32.308594 32.105469 32.980469 32.539062 33.652344 C 33.011719 34.386719 33.488281 35.121094 33.964844 35.855469 C 34.054688 35.992188 34.140625 36.125 34.230469 36.261719 C 34.398438 36.523438 34.570312 36.78125 34.738281 37.042969 C 35.308594 37.921875 35.308594 37.921875 35.308594 38.109375 C 34.015625 38.363281 32.65625 38.554688 31.386719 38.109375 C 30.363281 37.238281 29.835938 35.921875 29.269531 34.726562 C 28.851562 33.886719 28.351562 33.109375 27.847656 32.320312 C 27.683594 32.050781 27.515625 31.78125 27.351562 31.515625 C 27.261719 31.375 27.171875 31.238281 27.078125 31.097656 C 26.839844 30.695312 26.65625 30.320312 26.476562 29.894531 C 25.855469 28.539062 25.855469 28.539062 24.675781 27.722656 C 23.496094 27.496094 22.324219 27.566406 21.132812 27.613281 C 19.289062 27.65625 19.289062 27.65625 17.402344 27.699219 C 17.402344 31.136719 17.402344 34.570312 17.402344 38.109375 C 16.277344 38.109375 15.152344 38.109375 13.992188 38.109375 C 13.992188 29.832031 13.992188 21.550781 13.992188 13.019531 Z M 13.992188 13.019531 "/>
<path style=" stroke:none;fill-rule:nonzero;fill:rgb(7.843137%,7.45098%,7.45098%);fill-opacity:1;" d="M 59.695312 13.019531 C 61.980469 13.007812 64.261719 12.992188 66.613281 12.976562 C 67.328125 12.972656 68.046875 12.964844 68.78125 12.960938 C 69.667969 12.957031 69.667969 12.957031 70.085938 12.957031 C 70.375 12.953125 70.660156 12.953125 70.945312 12.949219 C 73.824219 12.914062 76.402344 13.207031 78.640625 15.21875 C 80.191406 16.84375 80.398438 18.8125 80.367188 20.960938 C 80.308594 22.640625 79.691406 24.011719 78.625 25.308594 C 77.570312 26.289062 76.039062 27.359375 74.53125 27.359375 C 75.886719 29.480469 77.238281 31.597656 78.617188 33.707031 C 78.71875 33.867188 78.824219 34.027344 78.933594 34.195312 C 79.035156 34.351562 79.140625 34.507812 79.242188 34.667969 C 79.746094 35.4375 80.25 36.207031 80.746094 36.980469 C 80.867188 37.164062 80.984375 37.347656 81.109375 37.539062 C 81.355469 37.941406 81.355469 37.941406 81.355469 38.109375 C 77.632812 38.496094 77.632812 38.496094 76.5625 37.734375 C 76.242188 37.214844 75.996094 36.710938 75.757812 36.152344 C 75.332031 35.242188 74.757812 34.40625 74.222656 33.554688 C 73.988281 33.171875 73.753906 32.785156 73.515625 32.402344 C 72.816406 31.257812 72.097656 30.125 71.371094 29 C 71.292969 28.875 71.214844 28.753906 71.132812 28.628906 C 71.066406 28.523438 70.996094 28.414062 70.925781 28.308594 C 70.78125 28.039062 70.78125 28.039062 70.78125 27.699219 C 68.359375 27.699219 65.941406 27.699219 63.449219 27.699219 C 63.449219 31.136719 63.449219 34.570312 63.449219 38.109375 C 62.210938 38.109375 60.972656 38.109375 59.695312 38.109375 C 59.695312 29.832031 59.695312 21.550781 59.695312 13.019531 Z M 63.449219 15.75 C 63.449219 18.792969 63.449219 21.835938 63.449219 24.96875 C 64.839844 24.980469 66.234375 24.988281 67.667969 25 C 68.105469 25.003906 68.539062 25.011719 68.988281 25.015625 C 69.339844 25.015625 69.691406 25.015625 70.042969 25.019531 C 70.21875 25.019531 70.398438 25.023438 70.582031 25.027344 C 72.253906 25.027344 73.945312 24.835938 75.269531 23.730469 C 76.351562 22.605469 76.632812 21.515625 76.632812 19.980469 C 76.605469 18.628906 76.222656 17.902344 75.269531 16.980469 C 73.644531 15.65625 71.554688 15.722656 69.558594 15.734375 C 69.324219 15.734375 69.324219 15.734375 69.085938 15.734375 C 68.511719 15.738281 67.9375 15.738281 67.359375 15.742188 C 65.421875 15.746094 65.421875 15.746094 63.449219 15.75 Z M 63.449219 15.75 "/>
<path style=" stroke:none;fill-rule:nonzero;fill:rgb(9.019608%,9.019608%,9.019608%);fill-opacity:1;" d="M 141.210938 12.851562 C 142.449219 12.851562 143.6875 12.851562 144.964844 12.851562 C 144.964844 16.398438 144.964844 19.945312 144.964844 23.601562 C 149.242188 23.601562 153.519531 23.601562 157.925781 23.601562 C 157.925781 20.054688 157.925781 16.507812 157.925781 12.851562 C 159.105469 12.851562 160.289062 12.851562 161.507812 12.851562 C 161.675781 13.019531 161.675781 13.019531 161.699219 13.433594 C 161.699219 13.617188 161.699219 13.804688 161.699219 13.992188 C 161.699219 14.3125 161.699219 14.3125 161.699219 14.632812 C 161.699219 14.871094 161.695312 15.105469 161.695312 15.34375 C 161.695312 15.589844 161.695312 15.839844 161.695312 16.085938 C 161.695312 16.757812 161.695312 17.429688 161.695312 18.105469 C 161.695312 18.808594 161.695312 19.511719 161.691406 20.210938 C 161.691406 21.542969 161.691406 22.875 161.691406 24.207031 C 161.6875 25.722656 161.6875 27.238281 161.6875 28.753906 C 161.683594 31.875 161.679688 34.992188 161.675781 38.109375 C 160.4375 38.109375 159.199219 38.109375 157.925781 38.109375 C 157.925781 34.28125 157.925781 30.449219 157.925781 26.503906 C 153.648438 26.503906 149.371094 26.503906 144.964844 26.503906 C 144.964844 30.335938 144.964844 34.164062 144.964844 38.109375 C 143.726562 38.109375 142.488281 38.109375 141.210938 38.109375 C 141.210938 29.773438 141.210938 21.4375 141.210938 12.851562 Z M 141.210938 12.851562 "/>
<path style=" stroke:none;fill-rule:nonzero;fill:rgb(9.803922%,9.803922%,9.803922%);fill-opacity:1;" d="M 186.574219 11.65625 C 187.757812 11.65625 188.9375 11.65625 190.15625 11.65625 C 190.242188 16.132812 190.242188 16.132812 190.328125 20.703125 C 190.664062 20.277344 190.664062 20.277344 191.007812 19.847656 C 191.40625 19.554688 191.40625 19.554688 191.832031 19.304688 C 191.96875 19.21875 192.105469 19.136719 192.25 19.050781 C 194.074219 18.160156 196.820312 18.117188 198.746094 18.75 C 200.339844 19.476562 201.453125 20.78125 202.125 22.378906 C 202.820312 24.332031 203.011719 26.273438 203 28.339844 C 203 28.652344 203 28.652344 202.996094 28.976562 C 202.960938 31.859375 202.558594 34.96875 200.390625 37.085938 C 198.367188 38.578125 196.339844 38.640625 193.910156 38.453125 C 192.339844 38.152344 191.105469 37.332031 190.15625 36.0625 C 190.101562 36.738281 190.042969 37.414062 189.988281 38.109375 C 188.804688 38.109375 187.621094 38.109375 186.40625 38.109375 C 186.460938 29.378906 186.519531 20.648438 186.574219 11.65625 Z M 191.75 22.132812 C 190.265625 23.929688 190.070312 26.40625 190.09375 28.636719 C 190.089844 28.828125 190.089844 29.019531 190.085938 29.21875 C 190.09375 31.230469 190.375 33.269531 191.691406 34.867188 C 192.753906 35.820312 194.054688 36.121094 195.453125 36.050781 C 196.507812 35.90625 197.238281 35.5 197.953125 34.71875 C 199.226562 33.015625 199.28125 30.878906 199.261719 28.832031 C 199.257812 28.46875 199.261719 28.105469 199.265625 27.738281 C 199.269531 25.667969 199.136719 23.488281 197.660156 21.894531 C 195.992188 20.597656 193.316406 20.667969 191.75 22.132812 Z M 191.75 22.132812 "/>
<path style=" stroke:none;fill-rule:nonzero;fill:rgb(8.235294%,8.235294%,8.235294%);fill-opacity:1;" d="M 97.78125 19.625 C 99.804688 21.332031 100.679688 23.238281 101.136719 25.820312 C 101.191406 26.949219 101.25 28.074219 101.308594 29.234375 C 96.804688 29.234375 92.304688 29.234375 87.664062 29.234375 C 87.75 29.40625 87.75 29.40625 87.835938 29.578125 C 87.875 29.96875 87.914062 30.359375 87.953125 30.75 C 88.140625 32.390625 88.722656 33.980469 90.050781 35.039062 C 91.332031 35.914062 92.820312 35.851562 94.316406 35.722656 C 95.640625 35.453125 96.457031 34.777344 97.214844 33.671875 C 97.332031 33.449219 97.449219 33.222656 97.554688 32.992188 C 98.695312 33.09375 99.722656 33.464844 100.796875 33.84375 C 99.804688 36.058594 98.8125 37.199219 96.53125 38.109375 C 94.15625 38.871094 90.78125 38.890625 88.515625 37.769531 C 87.960938 37.472656 87.472656 37.140625 86.980469 36.746094 C 86.875 36.660156 86.769531 36.574219 86.660156 36.484375 C 84.9375 34.941406 84.195312 32.371094 84.054688 30.121094 C 83.980469 26.691406 84.023438 23.234375 86.492188 20.550781 C 89.257812 17.980469 94.621094 17.453125 97.78125 19.625 Z M 89.09375 22.527344 C 88.089844 23.796875 87.835938 25.089844 87.835938 26.675781 C 91.042969 26.675781 94.25 26.675781 97.554688 26.675781 C 97.378906 24.753906 97.144531 23.105469 95.644531 21.78125 C 93.566406 20.246094 90.828125 20.75 89.09375 22.527344 Z M 89.09375 22.527344 "/>
<path style=" stroke:none;fill-rule:nonzero;fill:rgb(10.196078%,10.588235%,10.588235%);fill-opacity:1;" d="M 102.5 18.824219 C 103.796875 18.824219 105.089844 18.824219 106.421875 18.824219 C 106.988281 20.335938 107.550781 21.851562 108.113281 23.363281 C 108.375 24.066406 108.636719 24.769531 108.898438 25.472656 C 109.152344 26.15625 109.40625 26.835938 109.660156 27.515625 C 109.753906 27.773438 109.851562 28.03125 109.945312 28.289062 C 110.511719 29.800781 111.046875 31.320312 111.542969 32.855469 C 111.664062 33.308594 111.664062 33.308594 111.878906 33.503906 C 112.320312 32.238281 112.761719 30.972656 113.203125 29.703125 C 113.269531 29.515625 113.332031 29.328125 113.402344 29.132812 C 114.367188 26.355469 115.3125 23.566406 116.230469 20.769531 C 116.269531 20.648438 116.308594 20.53125 116.351562 20.40625 C 116.457031 20.085938 116.558594 19.765625 116.664062 19.445312 C 116.824219 18.996094 116.824219 18.996094 116.996094 18.824219 C 117.277344 18.808594 117.554688 18.804688 117.835938 18.808594 C 118.003906 18.808594 118.171875 18.808594 118.34375 18.808594 C 118.523438 18.808594 118.699219 18.8125 118.882812 18.8125 C 119.152344 18.816406 119.152344 18.816406 119.421875 18.816406 C 119.863281 18.816406 120.308594 18.820312 120.75 18.824219 C 119.316406 22.769531 117.839844 26.699219 116.351562 30.625 C 116.035156 31.457031 115.722656 32.289062 115.410156 33.121094 C 115.164062 33.769531 114.921875 34.414062 114.675781 35.058594 C 114.5625 35.359375 114.449219 35.660156 114.335938 35.964844 C 113.789062 37.417969 113.226562 38.867188 112.609375 40.292969 C 112.5625 40.402344 112.515625 40.511719 112.46875 40.621094 C 111.546875 42.714844 110.207031 44.566406 108.0625 45.488281 C 107.238281 45.734375 106.414062 45.691406 105.558594 45.664062 C 105.378906 45.660156 105.199219 45.65625 105.015625 45.652344 C 104.574219 45.644531 104.132812 45.632812 103.695312 45.621094 C 103.695312 44.777344 103.695312 43.929688 103.695312 43.0625 C 104.027344 43.050781 104.355469 43.039062 104.695312 43.027344 C 106.074219 42.917969 107.207031 42.535156 108.171875 41.515625 C 109.050781 40.367188 109.730469 39.050781 109.835938 37.597656 C 109.714844 37.160156 109.585938 36.785156 109.410156 36.371094 C 109.363281 36.25 109.316406 36.132812 109.265625 36.011719 C 109.105469 35.613281 108.941406 35.21875 108.777344 34.824219 C 108.664062 34.542969 108.550781 34.261719 108.4375 33.980469 C 108.25 33.523438 108.066406 33.066406 107.882812 32.609375 C 107.144531 30.796875 106.429688 28.972656 105.71875 27.144531 C 105.5 26.59375 105.285156 26.042969 105.070312 25.488281 C 104.199219 23.273438 103.34375 21.050781 102.5 18.824219 Z M 102.5 18.824219 "/>
<path style=" stroke:none;fill-rule:nonzero;fill:rgb(9.019608%,9.411765%,9.019608%);fill-opacity:1;" d="M 166.453125 18.824219 C 167.632812 18.824219 168.816406 18.824219 170.035156 18.824219 C 170.035156 19.210938 170.039062 19.597656 170.042969 19.996094 C 170.054688 21.285156 170.070312 22.570312 170.082031 23.859375 C 170.089844 24.636719 170.097656 25.417969 170.105469 26.195312 C 170.113281 26.949219 170.121094 27.703125 170.128906 28.457031 C 170.132812 28.742188 170.132812 29.03125 170.136719 29.316406 C 170.03125 32.375 170.03125 32.375 171.226562 35.039062 C 172.277344 35.800781 173.378906 35.835938 174.636719 35.722656 C 175.945312 35.421875 176.8125 34.796875 177.539062 33.671875 C 178.222656 32.332031 178.40625 31.039062 178.425781 29.539062 C 178.425781 29.421875 178.429688 29.304688 178.429688 29.1875 C 178.433594 28.804688 178.441406 28.421875 178.445312 28.042969 C 178.449219 27.773438 178.449219 27.507812 178.453125 27.242188 C 178.464844 26.546875 178.472656 25.847656 178.480469 25.152344 C 178.488281 24.4375 178.5 23.726562 178.507812 23.011719 C 178.527344 21.617188 178.542969 20.21875 178.558594 18.824219 C 179.6875 18.824219 180.8125 18.824219 181.972656 18.824219 C 182.027344 25.1875 182.082031 31.554688 182.140625 38.109375 C 181.015625 38.109375 179.890625 38.109375 178.730469 38.109375 C 178.675781 37.324219 178.617188 36.535156 178.558594 35.722656 C 178.234375 36.117188 178.234375 36.117188 177.898438 36.519531 C 176.917969 37.617188 175.726562 38.371094 174.230469 38.484375 C 169.921875 38.582031 169.921875 38.582031 168.265625 37.394531 C 166.089844 35.0625 166.425781 31.714844 166.4375 28.742188 C 166.4375 28.453125 166.4375 28.167969 166.4375 27.878906 C 166.4375 27.128906 166.4375 26.378906 166.441406 25.628906 C 166.441406 24.863281 166.441406 24.09375 166.445312 23.328125 C 166.445312 21.824219 166.449219 20.324219 166.453125 18.824219 Z M 166.453125 18.824219 "/>
<path style=" stroke:none;fill-rule:nonzero;fill:rgb(7.45098%,7.45098%,7.45098%);fill-opacity:1;" d="M 121.941406 18.824219 C 126.839844 18.824219 131.734375 18.824219 136.777344 18.824219 C 136.777344 21.757812 136.777344 21.757812 135.703125 22.84375 C 135.480469 23.089844 135.257812 23.335938 135.039062 23.582031 C 134.929688 23.699219 134.816406 23.820312 134.703125 23.941406 C 134.257812 24.433594 133.855469 24.953125 133.453125 25.480469 C 132.648438 26.519531 131.816406 27.535156 130.976562 28.546875 C 130.355469 29.300781 129.734375 30.0625 129.125 30.828125 C 128.828125 31.203125 128.527344 31.574219 128.226562 31.945312 C 128.078125 32.125 128.078125 32.125 127.929688 32.308594 C 127.738281 32.542969 127.546875 32.777344 127.355469 33.011719 C 127.265625 33.121094 127.175781 33.230469 127.082031 33.34375 C 127.003906 33.441406 126.925781 33.535156 126.84375 33.636719 C 126.394531 34.210938 125.960938 34.796875 125.523438 35.378906 C 129.464844 35.4375 133.402344 35.492188 137.460938 35.550781 C 137.460938 36.394531 137.460938 37.242188 137.460938 38.109375 C 132.113281 38.109375 126.769531 38.109375 121.261719 38.109375 C 121.261719 35.175781 121.261719 35.175781 122.046875 34.378906 C 122.222656 34.179688 122.394531 33.984375 122.566406 33.785156 C 122.660156 33.6875 122.75 33.585938 122.847656 33.480469 C 123.363281 32.910156 123.84375 32.308594 124.328125 31.710938 C 124.535156 31.464844 124.738281 31.214844 124.941406 30.96875 C 125.460938 30.339844 125.96875 29.699219 126.472656 29.054688 C 127.40625 27.855469 128.367188 26.671875 129.328125 25.496094 C 129.824219 24.882812 130.324219 24.269531 130.820312 23.65625 C 130.957031 23.488281 130.957031 23.488281 131.097656 23.316406 C 131.183594 23.210938 131.269531 23.101562 131.359375 22.992188 C 131.472656 22.855469 131.472656 22.855469 131.585938 22.710938 C 131.898438 22.328125 132.207031 21.941406 132.515625 21.554688 C 129.027344 21.5 125.539062 21.441406 121.941406 21.382812 C 121.941406 20.539062 121.941406 19.695312 121.941406 18.824219 Z M 121.941406 18.824219 "/>
<path style=" stroke:none;fill-rule:nonzero;fill:rgb(0.392157%,51.764706%,81.960784%);fill-opacity:1;" d="M 17.402344 15.75 C 18.726562 15.734375 20.046875 15.722656 21.371094 15.714844 C 21.820312 15.710938 22.269531 15.707031 22.71875 15.699219 C 23.367188 15.691406 24.015625 15.6875 24.664062 15.683594 C 24.863281 15.679688 25.0625 15.679688 25.265625 15.675781 C 27.09375 15.675781 28.753906 16.015625 30.097656 17.324219 C 30.929688 18.285156 31.109375 19.378906 31.09375 20.609375 C 30.96875 21.742188 30.53125 22.996094 29.683594 23.773438 C 28.054688 24.855469 26.667969 25.019531 24.746094 25 C 24.539062 25 24.328125 25 24.109375 25 C 23.441406 25 22.773438 24.996094 22.105469 24.988281 C 21.648438 24.988281 21.195312 24.988281 20.738281 24.984375 C 19.628906 24.980469 18.515625 24.976562 17.402344 24.96875 C 17.402344 21.925781 17.402344 18.886719 17.402344 15.75 Z M 17.402344 15.75 "/>
<path style=" stroke:none;fill-rule:nonzero;fill:rgb(54.117647%,68.235294%,82.352941%);fill-opacity:1;" d="M 47.417969 32.820312 C 47.585938 32.902344 47.585938 32.902344 47.757812 32.992188 C 46.839844 36.214844 44.9375 38.957031 42.644531 41.355469 C 42.519531 41.488281 42.394531 41.625 42.269531 41.765625 C 39.816406 44.378906 36.484375 46.289062 33.113281 47.445312 C 32.925781 47.511719 32.925781 47.511719 32.730469 47.578125 C 32.050781 47.792969 31.558594 47.890625 30.875 47.667969 C 31.472656 47.339844 32.089844 47.148438 32.742188 46.945312 C 38.535156 45.046875 43.335938 41.09375 46.121094 35.652344 C 46.585938 34.722656 47.015625 33.777344 47.417969 32.820312 Z M 47.417969 32.820312 "/>
<path style=" stroke:none;fill-rule:nonzero;fill:rgb(49.411765%,63.921569%,79.607843%);fill-opacity:1;" d="M 13.652344 46.132812 C 14.457031 46.1875 15.101562 46.390625 15.847656 46.699219 C 19.792969 48.261719 25.300781 48.972656 29.4375 47.816406 C 30.050781 47.660156 30.4375 47.6875 31.046875 47.839844 C 27.34375 49.875 20.96875 48.785156 17.113281 47.679688 C 15.917969 47.3125 14.78125 46.832031 13.652344 46.304688 C 13.652344 46.246094 13.652344 46.191406 13.652344 46.132812 Z M 13.652344 46.132812 "/>
<path style=" stroke:none;fill-rule:nonzero;fill:rgb(52.54902%,67.058824%,81.568627%);fill-opacity:1;" d="M 48.78125 19.675781 C 48.839844 19.675781 48.894531 19.675781 48.953125 19.675781 C 49.519531 23.117188 49.417969 26.496094 48.78125 29.917969 C 48.441406 29.578125 48.441406 29.578125 48.433594 29.273438 C 48.449219 29.148438 48.464844 29.023438 48.480469 28.894531 C 48.5 28.75 48.515625 28.605469 48.53125 28.453125 C 48.550781 28.292969 48.570312 28.132812 48.589844 27.964844 C 48.785156 26.113281 48.8125 24.277344 48.804688 22.417969 C 48.800781 22.28125 48.800781 22.148438 48.800781 22.007812 C 48.796875 21.230469 48.789062 20.453125 48.78125 19.675781 Z M 48.78125 19.675781 "/>
<path style=" stroke:none;fill-rule:nonzero;fill:rgb(55.294118%,68.627451%,82.352941%);fill-opacity:1;" d="M 43.835938 39.304688 C 44.003906 39.363281 44.175781 39.417969 44.347656 39.476562 C 41.214844 42.941406 41.214844 42.941406 40.085938 43.574219 C 40.226562 42.78125 40.707031 42.425781 41.289062 41.917969 C 42.207031 41.101562 43.046875 40.25 43.835938 39.304688 Z M 43.835938 39.304688 "/>
<path style=" stroke:none;fill-rule:nonzero;fill:rgb(47.45098%,65.098039%,81.176471%);fill-opacity:1;" d="M 31.046875 47.839844 C 29.53125 48.6875 27.765625 48.550781 26.101562 48.351562 C 26.101562 48.296875 26.101562 48.238281 26.101562 48.179688 C 26.355469 48.167969 26.355469 48.167969 26.613281 48.15625 C 28.039062 48.09375 28.039062 48.09375 29.4375 47.816406 C 30.050781 47.660156 30.4375 47.6875 31.046875 47.839844 Z M 31.046875 47.839844 "/>
<path style=" stroke:none;fill-rule:nonzero;fill:rgb(47.058824%,63.529412%,80%);fill-opacity:1;" d="M 4.101562 37.769531 C 4.757812 37.988281 4.890625 38.273438 5.285156 38.835938 C 5.726562 39.464844 6.175781 40.074219 6.660156 40.671875 C 6.148438 40.671875 6.148438 40.671875 5.867188 40.414062 C 4.101562 38.308594 4.101562 38.308594 4.101562 37.769531 Z M 4.101562 37.769531 "/>
<path style=" stroke:none;fill-rule:nonzero;fill:rgb(37.647059%,58.823529%,77.647059%);fill-opacity:1;" d="M 2.054688 14.386719 C 2.109375 14.386719 2.167969 14.386719 2.226562 14.386719 C 2.15625 15.410156 1.972656 16.1875 1.542969 17.117188 C 1.425781 17.589844 1.425781 17.589844 1.371094 17.96875 C 1.261719 17.96875 1.148438 17.96875 1.03125 17.96875 C 1.128906 17.09375 1.328125 16.339844 1.640625 15.507812 C 1.71875 15.296875 1.792969 15.085938 1.875 14.867188 C 1.933594 14.707031 1.992188 14.550781 2.054688 14.386719 Z M 2.054688 14.386719 "/>
<path style=" stroke:none;fill-rule:nonzero;fill:rgb(39.215686%,59.607843%,78.431373%);fill-opacity:1;" d="M 3.417969 11.824219 C 3.535156 12.105469 3.535156 12.105469 3.589844 12.507812 C 3.382812 12.984375 3.382812 12.984375 3.089844 13.492188 C 2.992188 13.660156 2.894531 13.828125 2.796875 14 C 2.71875 14.128906 2.644531 14.253906 2.566406 14.386719 C 2.453125 14.386719 2.339844 14.386719 2.226562 14.386719 C 2.507812 13.421875 2.820312 12.632812 3.417969 11.824219 Z M 3.417969 11.824219 "/>
<path style=" stroke:none;fill-rule:nonzero;fill:rgb(59.607843%,71.372549%,83.921569%);fill-opacity:1;" d="M 41.449219 41.867188 C 41.5625 41.976562 41.675781 42.089844 41.789062 42.207031 C 41.285156 42.65625 40.777344 43.109375 40.253906 43.574219 C 40.199219 43.402344 40.144531 43.234375 40.085938 43.0625 C 40.535156 42.667969 40.984375 42.273438 41.449219 41.867188 Z M 41.449219 41.867188 "/>
<path style=" stroke:none;fill-rule:nonzero;fill:rgb(58.039216%,47.058824%,34.509804%);fill-opacity:1;" d="M 87.664062 19.847656 C 87.417969 20.4375 87.105469 20.761719 86.621094 21.171875 C 86.433594 21.328125 86.433594 21.328125 86.246094 21.488281 C 86.152344 21.566406 86.054688 21.644531 85.960938 21.726562 C 85.960938 21.214844 85.960938 21.214844 86.246094 20.863281 C 86.429688 20.683594 86.429688 20.683594 86.621094 20.5 C 86.742188 20.375 86.863281 20.253906 86.992188 20.128906 C 87.324219 19.847656 87.324219 19.847656 87.664062 19.847656 Z M 87.664062 19.847656 "/>
<path style=" stroke:none;fill-rule:nonzero;fill:rgb(56.862745%,46.666667%,35.294118%);fill-opacity:1;" d="M 191.691406 19.335938 C 191.804688 19.335938 191.917969 19.335938 192.03125 19.335938 C 191.796875 19.882812 191.535156 20.199219 191.074219 20.574219 C 190.910156 20.707031 190.910156 20.707031 190.746094 20.84375 C 190.664062 20.910156 190.582031 20.976562 190.496094 21.042969 C 190.496094 20.53125 190.496094 20.53125 190.902344 20.09375 C 191.050781 19.957031 191.199219 19.820312 191.351562 19.675781 C 191.464844 19.566406 191.574219 19.453125 191.691406 19.335938 Z M 191.691406 19.335938 "/>
<path style=" stroke:none;fill-rule:nonzero;fill:rgb(50.588235%,64.705882%,80%);fill-opacity:1;" d="M 46.734375 13.53125 C 47.316406 14.222656 47.757812 15.007812 47.757812 15.921875 C 47.644531 15.921875 47.535156 15.921875 47.417969 15.921875 C 47.300781 15.652344 47.1875 15.382812 47.078125 15.113281 C 47.011719 14.960938 46.949219 14.8125 46.886719 14.65625 C 46.734375 14.214844 46.734375 14.214844 46.734375 13.53125 Z M 46.734375 13.53125 "/>
<path style=" stroke:none;fill-rule:nonzero;fill:rgb(56.078431%,69.803922%,83.137255%);fill-opacity:1;" d="M 47.417969 32.820312 C 47.53125 32.875 47.644531 32.933594 47.757812 32.992188 C 47.589844 33.496094 47.421875 34.003906 47.246094 34.527344 C 47.132812 34.46875 47.023438 34.414062 46.90625 34.355469 C 47.074219 33.847656 47.242188 33.34375 47.417969 32.820312 Z M 47.417969 32.820312 "/>
<path style=" stroke:none;fill-rule:nonzero;fill:rgb(36.470588%,60.784314%,80%);fill-opacity:1;" d="M 7.339844 6.707031 C 7.453125 6.761719 7.566406 6.820312 7.683594 6.875 C 7.445312 7.449219 7.175781 7.726562 6.660156 8.070312 C 6.546875 8.015625 6.433594 7.957031 6.320312 7.902344 C 6.65625 7.507812 6.992188 7.113281 7.339844 6.707031 Z M 7.339844 6.707031 "/>
<path style=" stroke:none;fill-rule:nonzero;fill:rgb(47.45098%,63.529412%,80%);fill-opacity:1;" d="M 11.433594 44.9375 C 12.070312 45.023438 12.425781 45.085938 12.96875 45.449219 C 12.96875 45.5625 12.96875 45.675781 12.96875 45.792969 C 12.324219 45.605469 11.867188 45.464844 11.433594 44.9375 Z M 11.433594 44.9375 "/>
<path style=" stroke:none;fill-rule:nonzero;fill:rgb(47.45098%,63.921569%,80%);fill-opacity:1;" d="M 44.6875 38.109375 C 44.800781 38.109375 44.914062 38.109375 45.03125 38.109375 C 44.777344 38.910156 44.777344 38.910156 44.328125 39.1875 C 44.167969 39.246094 44.167969 39.246094 44.007812 39.304688 C 44.210938 38.878906 44.425781 38.507812 44.6875 38.109375 Z M 44.6875 38.109375 "/>
<path style=" stroke:none;fill-rule:nonzero;fill:rgb(85.882353%,74.509804%,58.039216%);fill-opacity:1;" d="M 113.585938 28.722656 C 113.8125 29.402344 113.648438 29.765625 113.414062 30.429688 C 113.246094 30.515625 113.246094 30.515625 113.074219 30.601562 C 113.128906 30.351562 113.179688 30.101562 113.234375 29.855469 C 113.265625 29.714844 113.292969 29.578125 113.324219 29.433594 C 113.414062 29.066406 113.414062 29.066406 113.585938 28.722656 Z M 113.585938 28.722656 "/>
<path style=" stroke:none;fill-rule:nonzero;fill:rgb(54.509804%,70.196078%,84.313725%);fill-opacity:1;" d="M 31.046875 47.839844 C 30.574219 48.148438 30.382812 48.183594 29.808594 48.117188 C 29.65625 48.082031 29.5 48.046875 29.339844 48.011719 C 29.949219 47.609375 30.351562 47.679688 31.046875 47.839844 Z M 31.046875 47.839844 "/>
<path style=" stroke:none;fill-rule:nonzero;fill:rgb(46.666667%,62.745098%,79.215686%);fill-opacity:1;" d="M 40.085938 43.230469 C 39.898438 43.742188 39.796875 43.886719 39.296875 44.128906 C 39.164062 44.167969 39.027344 44.210938 38.890625 44.253906 C 38.890625 44.144531 38.890625 44.03125 38.890625 43.914062 C 39.652344 43.230469 39.652344 43.230469 40.085938 43.230469 Z M 40.085938 43.230469 "/>
<path style=" stroke:none;fill-rule:nonzero;fill:rgb(52.156863%,66.666667%,81.568627%);fill-opacity:1;" d="M 8.023438 42.378906 C 8.671875 42.46875 8.957031 42.753906 9.386719 43.230469 C 9.21875 43.316406 9.21875 43.316406 9.046875 43.402344 C 8.703125 43.121094 8.363281 42.835938 8.023438 42.546875 C 8.023438 42.492188 8.023438 42.4375 8.023438 42.378906 Z M 8.023438 42.378906 "/>
<path style=" stroke:none;fill-rule:nonzero;fill:rgb(51.764706%,65.882353%,80.784314%);fill-opacity:1;" d="M 46.734375 34.355469 C 46.847656 34.355469 46.960938 34.355469 47.078125 34.355469 C 46.925781 35.335938 46.925781 35.335938 46.734375 35.722656 C 46.621094 35.722656 46.511719 35.722656 46.394531 35.722656 C 46.484375 35.25 46.582031 34.8125 46.734375 34.355469 Z M 46.734375 34.355469 "/>
<path style=" stroke:none;fill-rule:nonzero;fill:rgb(55.686275%,68.627451%,82.352941%);fill-opacity:1;" d="M 42.984375 7.902344 C 43.816406 8.519531 43.816406 8.519531 44.007812 9.09375 C 43.839844 9.179688 43.839844 9.179688 43.664062 9.265625 C 42.984375 8.476562 42.984375 8.476562 42.984375 7.902344 Z M 42.984375 7.902344 "/>
</g>
</svg>
